<svg width="231" height="134" viewBox="0 0 231 134" fill="none" xmlns="http://www.w3.org/2000/svg">
<path d="M55.0285 124.761V123.892H58.6198V124.761L57.5005 124.953V128.395H62.3485V124.953L61.2292 124.761V123.892H64.8205V124.761L63.7012 124.953V132.802L64.8205 132.994V133.856H61.2292V132.994L62.3485 132.802V129.456H57.5005V132.802L58.6198 132.994V133.856H55.0285V132.994L56.1478 132.802V124.953L55.0285 124.761Z" fill="#999591"/>
<path d="M70.8083 133.856C70.7671 133.656 70.7351 133.475 70.7122 133.316C70.6893 133.156 70.6733 132.996 70.6641 132.837C70.4032 133.17 70.0759 133.448 69.6822 133.671C69.2931 133.89 68.8765 134 68.4324 134C67.6588 134 67.0705 133.813 66.6677 133.439C66.2648 133.06 66.0634 132.529 66.0634 131.844C66.0634 131.142 66.3472 130.601 66.9149 130.222C67.4871 129.839 68.2699 129.647 69.2633 129.647H70.6573V128.785C70.6573 128.352 70.5199 128.009 70.2453 127.759C69.9706 127.503 69.5883 127.375 69.0985 127.375C68.7598 127.375 68.4599 127.419 68.199 127.505C67.9426 127.592 67.7343 127.711 67.5741 127.861L67.4299 128.641H66.3861V127.204C66.7249 126.935 67.1346 126.721 67.6153 126.561C68.096 126.397 68.6178 126.315 69.1809 126.315C70.0232 126.315 70.7053 126.529 71.2272 126.958C71.7491 127.387 72.01 128 72.01 128.799V132.364C72.01 132.46 72.01 132.554 72.01 132.645C72.0146 132.736 72.0215 132.827 72.0306 132.919L72.58 132.994V133.856H70.8083ZM68.6316 132.871C69.0802 132.871 69.4899 132.764 69.8607 132.549C70.2315 132.335 70.497 132.077 70.6573 131.776V130.558H69.2152C68.6613 130.558 68.2219 130.685 67.8968 130.941C67.5764 131.196 67.4162 131.507 67.4162 131.872C67.4162 132.196 67.5169 132.444 67.7183 132.618C67.9197 132.786 68.2241 132.871 68.6316 132.871Z" fill="#999591"/>
<path d="M73.7061 132.994L74.8254 132.802V127.512L73.7061 127.321V126.451H76.1782V132.802L77.2975 132.994V133.856H73.7061V132.994ZM76.1782 124.556H74.8254V123.18H76.1782V124.556Z" fill="#999591"/>
<path d="M78.3343 127.321V126.451H80.6622L80.7926 127.526C81.0032 127.147 81.2619 126.851 81.5686 126.636C81.8799 126.422 82.2347 126.315 82.6329 126.315C82.7382 126.315 82.8458 126.324 82.9557 126.342C83.0701 126.356 83.1571 126.372 83.2166 126.39L83.0381 127.642L82.269 127.601C81.9119 127.601 81.6121 127.686 81.3695 127.854C81.1268 128.019 80.9391 128.251 80.8064 128.552V132.802L81.9257 132.994V133.856H78.3343V132.994L79.4536 132.802V127.512L78.3343 127.321Z" fill="#999591"/>
<path d="M87.3573 132.946C87.8059 132.946 88.1996 132.809 88.5384 132.535C88.8817 132.257 89.0534 131.917 89.0534 131.516H90.2688L90.2825 131.557C90.3054 132.196 90.0193 132.764 89.4242 133.261C88.8337 133.754 88.1447 134 87.3573 134C86.2769 134 85.4506 133.649 84.8784 132.946C84.3107 132.243 84.0269 131.361 84.0269 130.298V130.01C84.0269 128.956 84.313 128.078 84.8853 127.375C85.4575 126.668 86.2815 126.315 87.3573 126.315C87.9524 126.315 88.4857 126.413 88.9573 126.609C89.4334 126.805 89.827 127.074 90.1383 127.416L90.2001 129.059H89.1221L88.8268 127.895C88.6666 127.74 88.4606 127.615 88.2088 127.519C87.957 127.423 87.6732 127.375 87.3573 127.375C86.6477 127.375 86.1396 127.631 85.8329 128.142C85.5307 128.648 85.3797 129.271 85.3797 130.01V130.298C85.3797 131.055 85.5307 131.687 85.8329 132.193C86.135 132.695 86.6431 132.946 87.3573 132.946Z" fill="#999591"/>
<path d="M96.9159 132.761C96.6824 133.158 96.3802 133.464 96.0094 133.678C95.6432 133.893 95.2198 134 94.7391 134C93.9334 134 93.3039 133.742 92.8507 133.227C92.3975 132.711 92.1709 131.908 92.1709 130.818V127.512L91.3194 127.321V126.451H93.5237V130.831C93.5237 131.621 93.6404 132.164 93.8739 132.46C94.1073 132.757 94.4713 132.905 94.9657 132.905C95.4464 132.905 95.8423 132.809 96.1536 132.618C96.4695 132.421 96.7076 132.145 96.8678 131.789V127.512L95.8721 127.321V126.451H98.2205V132.802L99.072 132.994V133.856H97.0051L96.9159 132.761Z" fill="#999591"/>
<path d="M102.505 124.665V126.451H103.913V127.451H102.505V131.947C102.505 132.294 102.576 132.538 102.718 132.679C102.865 132.821 103.057 132.891 103.295 132.891C103.414 132.891 103.547 132.882 103.693 132.864C103.844 132.841 103.97 132.818 104.071 132.795L104.256 133.719C104.128 133.802 103.941 133.868 103.693 133.918C103.446 133.973 103.199 134 102.952 134C102.402 134 101.965 133.836 101.64 133.507C101.315 133.174 101.153 132.654 101.153 131.947V127.451H99.9784V126.451H101.153V124.665H102.505Z" fill="#999591"/>
<path d="M110.979 128.778H109.963L109.743 127.889C109.578 127.733 109.37 127.61 109.118 127.519C108.871 127.423 108.589 127.375 108.274 127.375C107.793 127.375 107.436 127.48 107.202 127.69C106.969 127.9 106.852 128.153 106.852 128.45C106.852 128.742 106.955 128.972 107.161 129.141C107.367 129.31 107.786 129.46 108.418 129.593C109.356 129.793 110.054 130.067 110.512 130.414C110.97 130.756 111.199 131.217 111.199 131.796C111.199 132.453 110.931 132.985 110.395 133.391C109.864 133.797 109.168 134 108.308 134C107.745 134 107.239 133.936 106.79 133.808C106.342 133.676 105.941 133.487 105.589 133.24L105.582 131.55H106.598L106.852 132.542C107.008 132.684 107.218 132.786 107.484 132.85C107.754 132.914 108.029 132.946 108.308 132.946C108.789 132.946 109.164 132.85 109.434 132.659C109.709 132.462 109.846 132.207 109.846 131.892C109.846 131.596 109.732 131.351 109.503 131.16C109.278 130.968 108.85 130.802 108.219 130.66C107.317 130.464 106.637 130.197 106.179 129.86C105.721 129.522 105.492 129.066 105.492 128.491C105.492 127.889 105.749 127.375 106.262 126.951C106.779 126.527 107.45 126.315 108.274 126.315C108.837 126.315 109.342 126.388 109.791 126.534C110.24 126.68 110.613 126.883 110.91 127.143L110.979 128.778Z" fill="#999591"/>
<path d="M115.861 131.174C115.861 130.617 116.022 130.131 116.342 129.716C116.667 129.296 117.15 128.876 117.791 128.457C117.434 128.005 117.168 127.603 116.994 127.252C116.82 126.896 116.733 126.531 116.733 126.157C116.733 125.386 116.955 124.793 117.399 124.378C117.848 123.958 118.464 123.748 119.247 123.748C119.97 123.748 120.558 123.956 121.011 124.371C121.465 124.786 121.691 125.286 121.691 125.87C121.691 126.317 121.57 126.705 121.327 127.033C121.089 127.357 120.734 127.69 120.263 128.032L119.514 128.58L121.849 131.379C122.037 131.082 122.183 130.754 122.289 130.393C122.394 130.033 122.447 129.652 122.447 129.25H123.655C123.655 129.848 123.566 130.402 123.387 130.913C123.209 131.424 122.95 131.883 122.611 132.289L123.882 133.822L123.868 133.856H122.295L121.712 133.158C121.346 133.432 120.94 133.642 120.496 133.788C120.052 133.929 119.592 134 119.116 134C118.123 134 117.331 133.738 116.74 133.213C116.154 132.688 115.861 132.008 115.861 131.174ZM119.116 132.946C119.446 132.946 119.771 132.891 120.091 132.782C120.412 132.668 120.714 132.506 120.998 132.296L118.519 129.319L118.244 129.517C117.828 129.828 117.551 130.124 117.413 130.407C117.28 130.69 117.214 130.945 117.214 131.174C117.214 131.689 117.377 132.113 117.702 132.446C118.027 132.78 118.498 132.946 119.116 132.946ZM118.086 126.143C118.086 126.385 118.148 126.638 118.272 126.903C118.395 127.163 118.581 127.448 118.828 127.759L119.775 127.108C120.036 126.935 120.213 126.748 120.304 126.547C120.4 126.342 120.448 126.116 120.448 125.87C120.448 125.591 120.336 125.345 120.112 125.131C119.892 124.916 119.604 124.809 119.247 124.809C118.876 124.809 118.59 124.939 118.388 125.199C118.187 125.455 118.086 125.769 118.086 126.143Z" fill="#999591"/>
<path d="M135.439 126.835H134.415L134.161 125.411C133.955 125.238 133.681 125.094 133.337 124.98C132.994 124.866 132.596 124.809 132.142 124.809C131.424 124.809 130.872 124.962 130.488 125.267C130.103 125.569 129.911 125.963 129.911 126.451C129.911 126.885 130.105 127.248 130.494 127.54C130.888 127.827 131.522 128.08 132.397 128.299C133.449 128.559 134.248 128.943 134.793 129.449C135.342 129.955 135.617 130.583 135.617 131.331C135.617 132.134 135.287 132.78 134.628 133.268C133.974 133.756 133.115 134 132.053 134C131.284 134 130.6 133.875 130 133.624C129.405 133.373 128.92 133.044 128.544 132.638V130.783H129.561L129.821 132.214C130.082 132.428 130.394 132.604 130.755 132.741C131.117 132.878 131.55 132.946 132.053 132.946C132.735 132.946 133.273 132.802 133.667 132.515C134.065 132.227 134.264 131.837 134.264 131.345C134.264 130.888 134.093 130.507 133.749 130.202C133.406 129.891 132.799 129.631 131.93 129.422C130.872 129.171 130.046 128.801 129.451 128.313C128.856 127.825 128.558 127.211 128.558 126.472C128.558 125.692 128.89 125.044 129.554 124.528C130.217 124.008 131.08 123.748 132.142 123.748C132.843 123.748 133.479 123.869 134.051 124.111C134.628 124.348 135.091 124.638 135.439 124.98V126.835Z" fill="#999591"/>
<path d="M136.709 132.994L137.828 132.802V124.241L136.709 124.049V123.18H139.181V127.437C139.437 127.081 139.751 126.805 140.122 126.609C140.492 126.413 140.904 126.315 141.358 126.315C142.154 126.315 142.772 126.552 143.212 127.026C143.651 127.501 143.871 128.231 143.871 129.216V132.802L144.99 132.994V133.856H141.399V132.994L142.518 132.802V129.203C142.518 128.591 142.385 128.14 142.12 127.848C141.859 127.556 141.468 127.41 140.946 127.41C140.575 127.41 140.236 127.498 139.929 127.676C139.627 127.85 139.378 128.087 139.181 128.388V132.802L140.3 132.994V133.856H136.709V132.994Z" fill="#999591"/>
<path d="M150.82 133.856C150.779 133.656 150.747 133.475 150.724 133.316C150.701 133.156 150.685 132.996 150.676 132.837C150.415 133.17 150.088 133.448 149.694 133.671C149.305 133.89 148.888 134 148.444 134C147.671 134 147.082 133.813 146.679 133.439C146.277 133.06 146.075 132.529 146.075 131.844C146.075 131.142 146.359 130.601 146.927 130.222C147.499 129.839 148.282 129.647 149.275 129.647H150.669V128.785C150.669 128.352 150.532 128.009 150.257 127.759C149.982 127.503 149.6 127.375 149.11 127.375C148.772 127.375 148.472 127.419 148.211 127.505C147.954 127.592 147.746 127.711 147.586 127.861L147.442 128.641H146.398V127.204C146.737 126.935 147.146 126.721 147.627 126.561C148.108 126.397 148.63 126.315 149.193 126.315C150.035 126.315 150.717 126.529 151.239 126.958C151.761 127.387 152.022 128 152.022 128.799V132.364C152.022 132.46 152.022 132.554 152.022 132.645C152.026 132.736 152.033 132.827 152.042 132.919L152.592 132.994V133.856H150.82ZM148.643 132.871C149.092 132.871 149.502 132.764 149.872 132.549C150.243 132.335 150.509 132.077 150.669 131.776V130.558H149.227C148.673 130.558 148.234 130.685 147.909 130.941C147.588 131.196 147.428 131.507 147.428 131.872C147.428 132.196 147.529 132.444 147.73 132.618C147.931 132.786 148.236 132.871 148.643 132.871Z" fill="#999591"/>
<path d="M156.156 127.321L155.263 127.457L156.794 131.673L156.918 132.207H156.959L157.089 131.673L158.573 127.457L157.673 127.321V126.451H160.543V127.321L159.932 127.423L157.44 133.856H156.417L153.896 127.423L153.285 127.321V126.451H156.156V127.321Z" fill="#999591"/>
<path d="M164.76 134C163.725 134 162.901 133.658 162.288 132.973C161.679 132.285 161.374 131.393 161.374 130.298V129.996C161.374 128.943 161.688 128.067 162.315 127.368C162.947 126.666 163.693 126.315 164.554 126.315C165.552 126.315 166.307 126.616 166.82 127.218C167.337 127.82 167.596 128.623 167.596 129.627V130.469H162.775L162.755 130.503C162.768 131.215 162.949 131.801 163.297 132.262C163.645 132.718 164.133 132.946 164.76 132.946C165.217 132.946 165.618 132.882 165.961 132.754C166.309 132.622 166.609 132.442 166.861 132.214L167.39 133.09C167.124 133.345 166.772 133.562 166.332 133.74C165.897 133.913 165.373 134 164.76 134ZM164.554 127.375C164.1 127.375 163.714 127.567 163.393 127.95C163.073 128.329 162.876 128.806 162.803 129.381L162.816 129.415H166.243V129.237C166.243 128.708 166.101 128.265 165.817 127.909C165.533 127.553 165.112 127.375 164.554 127.375Z" fill="#999591"/>
<path d="M174.62 128.778H173.604L173.384 127.889C173.22 127.733 173.011 127.61 172.759 127.519C172.512 127.423 172.231 127.375 171.915 127.375C171.434 127.375 171.077 127.48 170.844 127.69C170.61 127.9 170.493 128.153 170.493 128.45C170.493 128.742 170.596 128.972 170.802 129.141C171.008 129.31 171.427 129.46 172.059 129.593C172.998 129.793 173.696 130.067 174.153 130.414C174.611 130.756 174.84 131.217 174.84 131.796C174.84 132.453 174.572 132.985 174.037 133.391C173.506 133.797 172.81 134 171.949 134C171.386 134 170.88 133.936 170.432 133.808C169.983 133.676 169.582 133.487 169.23 133.24L169.223 131.55H170.239L170.493 132.542C170.649 132.684 170.86 132.786 171.125 132.85C171.395 132.914 171.67 132.946 171.949 132.946C172.43 132.946 172.805 132.85 173.075 132.659C173.35 132.462 173.487 132.207 173.487 131.892C173.487 131.596 173.373 131.351 173.144 131.16C172.92 130.968 172.492 130.802 171.86 130.66C170.958 130.464 170.278 130.197 169.821 129.86C169.363 129.522 169.134 129.066 169.134 128.491C169.134 127.889 169.39 127.375 169.903 126.951C170.42 126.527 171.091 126.315 171.915 126.315C172.478 126.315 172.984 126.388 173.432 126.534C173.881 126.68 174.254 126.883 174.552 127.143L174.62 128.778Z" fill="#999591"/>
<path d="M83.1411 9.10207L83.8827 8.99942L87.3779 0H88.5384L91.9718 8.99942L92.7065 9.10207V9.96438H89.8362V9.10207L90.5916 8.97205L89.9324 7.13794H85.929L85.2492 8.97205L86.0046 9.10207V9.96438H83.1411V9.10207ZM86.3479 6.00874H89.5204L87.9685 1.73145H87.9273L86.3479 6.00874Z" fill="#999591"/>
<path d="M95.4601 3.42868L94.6086 3.57924L95.5769 7.26797L95.7348 8.16449H95.776L95.9683 7.26797L97.4515 2.55953H98.5364L100.027 7.26797L100.239 8.26715H100.281L100.48 7.26797L101.393 3.57924L100.528 3.42868V2.55953H103.357V3.42868L102.711 3.52449L100.837 9.96438H99.745L98.303 5.4544L97.994 4.20885L97.9528 4.2157L97.6644 5.4544L96.2498 9.96438H95.158L93.2834 3.52449L92.631 3.42868V2.55953H95.4601V3.42868Z" fill="#999591"/>
<path d="M107.848 10.1081C106.813 10.1081 105.989 9.76591 105.376 9.08154C104.767 8.39261 104.462 7.50066 104.462 6.40567V6.10455C104.462 5.05062 104.776 4.17464 105.403 3.47658C106.035 2.77397 106.781 2.42266 107.642 2.42266C108.64 2.42266 109.395 2.72378 109.908 3.32602C110.425 3.92826 110.684 4.73125 110.684 5.73499V6.57676H105.863L105.843 6.61098C105.856 7.32272 106.037 7.909 106.385 8.3698C106.733 8.82605 107.221 9.05417 107.848 9.05417C108.306 9.05417 108.706 8.99029 109.049 8.86255C109.397 8.73024 109.697 8.55002 109.949 8.3219L110.478 9.19789C110.212 9.45338 109.86 9.6701 109.42 9.84803C108.985 10.0214 108.461 10.1081 107.848 10.1081ZM107.642 3.48343C107.189 3.48343 106.802 3.67505 106.481 4.05829C106.161 4.43698 105.964 4.91375 105.891 5.48862L105.905 5.52284H109.331V5.3449C109.331 4.81566 109.189 4.3731 108.905 4.01723C108.621 3.66136 108.2 3.48343 107.642 3.48343Z" fill="#999591"/>
<path d="M117.709 4.88638H116.692L116.472 3.9967C116.308 3.84158 116.099 3.71839 115.848 3.62714C115.6 3.53133 115.319 3.48343 115.003 3.48343C114.522 3.48343 114.165 3.58836 113.932 3.79823C113.698 4.00811 113.582 4.26132 113.582 4.55788C113.582 4.84988 113.685 5.08028 113.891 5.24909C114.097 5.4179 114.515 5.56846 115.147 5.70077C116.086 5.90152 116.784 6.17527 117.242 6.52201C117.699 6.8642 117.928 7.325 117.928 7.90443C117.928 8.56143 117.66 9.09295 117.125 9.49901C116.594 9.90506 115.898 10.1081 115.037 10.1081C114.474 10.1081 113.968 10.0442 113.52 9.91647C113.071 9.78416 112.671 9.59482 112.318 9.34845L112.311 7.65806H113.327L113.582 8.65039C113.737 8.79183 113.948 8.89448 114.213 8.95836C114.483 9.02223 114.758 9.05417 115.037 9.05417C115.518 9.05417 115.893 8.95836 116.163 8.76674C116.438 8.57055 116.575 8.31505 116.575 8.00024C116.575 7.70369 116.461 7.4596 116.232 7.26797C116.008 7.07635 115.58 6.90982 114.948 6.76838C114.046 6.5722 113.366 6.3053 112.909 5.96768C112.451 5.63006 112.222 5.17381 112.222 4.59894C112.222 3.9967 112.478 3.48343 112.991 3.05912C113.508 2.63481 114.179 2.42266 115.003 2.42266C115.566 2.42266 116.072 2.49566 116.521 2.64165C116.969 2.78765 117.342 2.99068 117.64 3.25074L117.709 4.88638Z" fill="#999591"/>
<path d="M119.199 6.19352C119.199 5.09853 119.496 4.19745 120.091 3.49027C120.686 2.77853 121.494 2.42266 122.515 2.42266C123.541 2.42266 124.351 2.77625 124.946 3.48343C125.546 4.1906 125.846 5.09397 125.846 6.19352V6.34408C125.846 7.44819 125.548 8.35155 124.953 9.05417C124.358 9.75679 123.55 10.1081 122.529 10.1081C121.499 10.1081 120.686 9.75679 120.091 9.05417C119.496 8.34699 119.199 7.44363 119.199 6.34408V6.19352ZM120.551 6.34408C120.551 7.12882 120.716 7.77668 121.046 8.28768C121.38 8.79867 121.874 9.05417 122.529 9.05417C123.17 9.05417 123.657 8.79867 123.992 8.28768C124.326 7.77668 124.493 7.12882 124.493 6.34408V6.19352C124.493 5.4179 124.326 4.77232 123.992 4.25676C123.657 3.7412 123.165 3.48343 122.515 3.48343C121.865 3.48343 121.375 3.7412 121.046 4.25676C120.716 4.77232 120.551 5.4179 120.551 6.19352V6.34408Z" fill="#999591"/>
<path d="M126.821 9.10207L127.94 8.91045V3.6203L126.821 3.42868V2.55953H129.155L129.245 3.52449C129.483 3.17318 129.789 2.90171 130.165 2.71009C130.54 2.51847 130.975 2.42266 131.47 2.42266C131.964 2.42266 132.387 2.53672 132.74 2.76484C133.097 2.99296 133.365 3.33515 133.543 3.79139C133.777 3.37165 134.086 3.03859 134.47 2.79222C134.855 2.54584 135.303 2.42266 135.816 2.42266C136.576 2.42266 137.176 2.68272 137.615 3.20284C138.055 3.71839 138.275 4.49629 138.275 5.53653V8.91045L139.394 9.10207V9.96438H135.796V9.10207L136.915 8.91045V5.52284C136.915 4.79285 136.789 4.27729 136.537 3.97617C136.285 3.67049 135.912 3.51764 135.418 3.51764C134.946 3.51764 134.566 3.68417 134.278 4.01723C133.994 4.34573 133.829 4.76091 133.784 5.26278V8.91045L134.903 9.10207V9.96438H131.312V9.10207L132.431 8.91045V5.52284C132.431 4.82935 132.3 4.32292 132.039 4.00354C131.783 3.67961 131.41 3.51764 130.92 3.51764C130.508 3.51764 130.169 3.60205 129.904 3.77086C129.638 3.93967 129.435 4.17692 129.293 4.4826V8.91045L130.412 9.10207V9.96438H126.821V9.10207Z" fill="#999591"/>
<path d="M143.706 10.1081C142.672 10.1081 141.848 9.76591 141.234 9.08154C140.625 8.39261 140.321 7.50066 140.321 6.40567V6.10455C140.321 5.05062 140.634 4.17464 141.262 3.47658C141.893 2.77397 142.64 2.42266 143.5 2.42266C144.498 2.42266 145.253 2.72378 145.766 3.32602C146.283 3.92826 146.542 4.73125 146.542 5.73499V6.57676H141.722L141.701 6.61098C141.715 7.32272 141.896 7.909 142.244 8.3698C142.591 8.82605 143.079 9.05417 143.706 9.05417C144.164 9.05417 144.564 8.99029 144.908 8.86255C145.256 8.73024 145.556 8.55002 145.807 8.3219L146.336 9.19789C146.071 9.45338 145.718 9.6701 145.279 9.84803C144.844 10.0214 144.32 10.1081 143.706 10.1081ZM143.5 3.48343C143.047 3.48343 142.66 3.67505 142.34 4.05829C142.019 4.43698 141.822 4.91375 141.749 5.48862L141.763 5.52284H145.189V5.3449C145.189 4.81566 145.047 4.3731 144.764 4.01723C144.48 3.66136 144.059 3.48343 143.5 3.48343Z" fill="#999591"/>
<rect y="106.073" width="230.033" height="2.00226" fill="#FF9000"/>
<rect y="25.9825" width="230.033" height="2.00226" fill="#FF9000"/>
<path d="M53.2717 64.8142V78.8841C53.2717 80.0799 53.028 81.2197 52.5405 82.3034C52.0906 83.3498 51.4719 84.2654 50.6845 85.0501C49.897 85.8349 48.9596 86.4515 47.8722 86.9C46.8223 87.3858 45.6974 87.6287 44.4976 87.6287C43.2977 87.6287 42.1728 87.4045 41.1229 86.956C40.073 86.5076 39.1543 85.9097 38.3669 85.1623C37.5795 84.3775 36.942 83.4806 36.4546 82.4716C36.0046 81.4252 35.7609 80.3041 35.7234 79.1083V68.7381C35.6109 67.5796 35.086 66.7388 34.1486 66.2156C34.6735 65.954 35.1985 65.8232 35.7234 65.8232V52.5942C35.7609 51.3984 36.0046 50.2773 36.4546 49.2309C36.942 48.1845 37.5795 47.2876 38.3669 46.5402C39.1543 45.7555 40.073 45.1389 41.1229 44.6904C42.1728 44.242 43.2977 44.0178 44.4976 44.0178C45.6974 44.0178 46.8223 44.2607 47.8722 44.7465C48.9596 45.1949 49.897 45.8115 50.6845 46.5963C51.4719 47.3811 52.0906 48.3153 52.5405 49.3991C53.028 50.4454 53.2717 51.5852 53.2717 52.8184C53.2717 53.4537 53.328 53.9208 53.4404 54.2198C53.5904 54.5188 53.7404 54.7617 53.8904 54.9485C54.0404 55.1354 54.1716 55.3035 54.2841 55.453C54.4341 55.6025 54.5091 55.8454 54.5091 56.1817H51.5844C50.9844 56.107 50.6845 55.7894 50.6845 55.2288C50.6845 55.7894 50.3845 56.107 49.7845 56.1817H46.8036C46.8036 55.8454 46.8598 55.6025 46.9723 55.453C47.1223 55.3035 47.2723 55.1354 47.4223 54.9485C47.5723 54.7617 47.7035 54.5188 47.816 54.2198C47.966 53.9208 48.041 53.435 48.041 52.7624V52.7063C48.041 52.2205 48.0222 51.6413 47.9847 50.9686C47.9472 50.2586 47.816 49.5859 47.591 48.9506C47.366 48.3153 47.0098 47.7735 46.5224 47.325C46.0349 46.8766 45.36 46.6524 44.4976 46.6524C43.5976 46.6524 42.904 46.8953 42.4165 47.3811C41.9666 47.8295 41.6291 48.3714 41.4041 49.0067C41.1791 49.642 41.0479 50.3146 41.0104 51.0247C40.9729 51.7347 40.9542 52.3326 40.9542 52.8184V65.8232C41.4791 65.8232 42.004 65.954 42.529 66.2156C41.5916 66.7388 41.0666 67.5796 40.9542 68.7381V78.8841C40.9542 79.3699 40.9729 79.9678 41.0104 80.6778C41.0479 81.3505 41.1791 82.0232 41.4041 82.6958C41.6291 83.3311 41.9666 83.873 42.4165 84.3214C42.904 84.7699 43.5976 84.9941 44.4976 84.9941C45.3975 84.9941 46.0724 84.7699 46.5224 84.3214C47.0098 83.873 47.366 83.3311 47.591 82.6958C47.816 82.0232 47.9472 81.3505 47.9847 80.6778C48.0222 79.9678 48.041 79.3699 48.041 78.8841V67.3928C47.6285 67.4301 47.2723 67.5983 46.9723 67.8973C46.7098 68.1962 46.5786 68.5512 46.5786 68.9623V69.0184C46.5411 69.5789 46.3911 70.0647 46.1287 70.4758C45.9037 70.8495 45.5662 71.1858 45.1162 71.4848C44.6663 71.7464 44.0101 71.8772 43.1477 71.8772V64.8142H53.2717Z" fill="#F4EDE8"/>
<path fill-rule="evenodd" clip-rule="evenodd" d="M73.7043 65.8793C74.3417 65.8793 74.8667 66.0101 75.2791 66.2717C74.8667 66.5333 74.5105 66.8883 74.2105 67.3367C73.948 67.7852 73.7793 68.271 73.7043 68.7942V77.2585C73.6668 78.4543 73.4043 79.5754 72.9169 80.6218C72.4669 81.6308 71.8482 82.5277 71.0608 83.3124C70.2734 84.0598 69.3547 84.6578 68.3048 85.1062C67.2549 85.5546 66.13 85.7789 64.9301 85.7789C63.7303 85.7789 62.6054 85.5546 61.5555 85.1062C60.5056 84.6578 59.5869 84.0598 58.7995 83.3124C58.0121 82.5277 57.3746 81.6308 56.8872 80.6218C56.4372 79.5754 56.1935 78.4543 56.156 77.2585V68.7942C56.0435 67.6357 55.5186 66.7948 54.5811 66.2717C54.9936 66.0101 55.5186 65.8793 56.156 65.8793V55.0606C56.1935 53.9022 56.4372 52.7997 56.8872 51.7534C57.3746 50.707 58.0121 49.8101 58.7995 49.0627C59.5869 48.278 60.5056 47.6613 61.5555 47.2129C62.6054 46.7645 63.7303 46.5402 64.9301 46.5402C66.13 46.5402 67.2549 46.7645 68.3048 47.2129C69.3547 47.6613 70.2734 48.278 71.0608 49.0627C71.8482 49.8101 72.4669 50.707 72.9169 51.7534C73.4043 52.7997 73.6668 53.9022 73.7043 55.0606V65.8793ZM68.4736 55.2848C68.4736 54.799 68.4548 54.2011 68.4173 53.4911C68.3798 52.781 68.2486 52.1084 68.0236 51.4731C67.7986 50.8378 67.4424 50.2959 66.955 49.8475C66.505 49.3617 65.8301 49.1188 64.9301 49.1188C64.0302 49.1188 63.3366 49.3617 62.8491 49.8475C62.3991 50.2959 62.0617 50.8378 61.8367 51.4731C61.6117 52.1084 61.4805 52.781 61.443 53.4911C61.4055 54.2011 61.3867 54.799 61.3867 55.2848V65.8793C62.0242 65.8793 62.5491 66.0101 62.9616 66.2717C62.0242 66.7948 61.4992 67.6357 61.3867 68.7942V77.0343C61.3867 77.5201 61.4055 78.118 61.443 78.828C61.4805 79.5007 61.6117 80.1734 61.8367 80.846C62.0617 81.4813 62.3991 82.0232 62.8491 82.4716C63.3366 82.92 64.0302 83.1443 64.9301 83.1443C65.8301 83.1443 66.505 82.92 66.955 82.4716C67.4424 82.0232 67.7986 81.4813 68.0236 80.846C68.2486 80.1734 68.3798 79.5007 68.4173 78.828C68.4548 78.118 68.4736 77.5201 68.4736 77.0343V68.7942C68.3986 67.6731 67.8736 66.8322 66.8987 66.2717C67.3112 66.0101 67.8361 65.8793 68.4736 65.8793V55.2848Z" fill="#F4EDE8"/>
<path fill-rule="evenodd" clip-rule="evenodd" d="M93.3389 63.1886C94.1638 61.8433 94.5763 60.3298 94.5763 58.6482V52.5382C94.5388 51.3797 94.2951 50.2773 93.8451 49.2309C93.3952 48.1845 92.7765 47.2876 91.989 46.5402C91.2016 45.7555 90.283 45.1389 89.2331 44.6904C88.1832 44.242 87.0583 44.0178 85.8584 44.0178H80.5714C79.9715 44.0178 79.6715 44.3167 79.6715 44.9146C79.6715 44.6531 79.5778 44.4475 79.3903 44.298C79.2028 44.1112 78.9966 44.0178 78.7716 44.0178H75.7906C75.7906 44.3541 75.8469 44.597 75.9593 44.7465C76.1093 44.896 76.2593 45.0641 76.4093 45.251C76.5593 45.4005 76.6905 45.6247 76.803 45.9236C76.953 46.2226 77.028 46.6897 77.028 47.325V65.7672C76.4655 65.7672 75.9406 65.9167 75.4532 66.2156C76.3906 66.7388 76.9155 67.5609 77.028 68.682V84.3214C77.028 84.9567 76.953 85.4238 76.803 85.7228C76.6905 86.0218 76.5593 86.246 76.4093 86.3955C76.2593 86.5823 76.1093 86.7505 75.9593 86.9C75.8469 87.0495 75.7906 87.2924 75.7906 87.6287H78.7716C78.9966 87.6287 79.2028 87.5353 79.3903 87.3484C79.5778 87.1616 79.6715 86.9373 79.6715 86.6758C79.6715 86.9373 79.7465 87.1616 79.8965 87.3484C80.0839 87.5353 80.3089 87.6287 80.5714 87.6287H85.8584C87.0583 87.6287 88.1832 87.3858 89.2331 86.9C90.283 86.4515 91.2016 85.8536 91.989 85.1062C92.7765 84.3214 93.3952 83.4246 93.8451 82.4156C94.2951 81.3692 94.5388 80.2481 94.5763 79.0522V75.4647C94.5763 74.6426 94.4638 73.8017 94.2388 72.9422C94.0139 72.0827 93.6951 71.2419 93.2827 70.4197C92.9077 69.5976 92.439 68.8502 91.8766 68.1775C91.3141 67.4675 90.6954 66.8509 90.0205 66.3277C91.4079 65.5803 92.514 64.534 93.3389 63.1886ZM89.2893 73.3907C89.3268 74.2875 89.3455 74.9789 89.3455 75.4647V78.828C89.3455 79.3138 89.3268 79.9118 89.2893 80.6218C89.2518 81.3318 89.1206 82.0045 88.8956 82.6398C88.6706 83.2751 88.3144 83.8356 87.8269 84.3214C87.377 84.7699 86.7021 84.9941 85.8021 84.9941H83.7773C83.3649 84.9567 83.0087 84.8072 82.7087 84.5457C82.4087 84.2467 82.2587 83.8917 82.2587 83.4806V68.9063C82.2587 68.4952 82.4087 68.1402 82.7087 67.8412C83.0087 67.5422 83.3649 67.3928 83.7773 67.3928H85.8021C86.7021 67.3928 87.377 67.7291 87.8269 68.4018C88.3144 69.0371 88.6706 69.8031 88.8956 70.7C89.1206 71.5969 89.2518 72.4938 89.2893 73.3907ZM89.2893 51.0247C89.3268 51.6973 89.3455 52.2766 89.3455 52.7624V58.6482C89.3455 59.134 89.3268 59.7319 89.2893 60.4419C89.2518 61.1146 89.1206 61.7872 88.8956 62.4599C88.6706 63.0952 88.3144 63.6371 87.8269 64.0855C87.377 64.534 86.7021 64.7582 85.8021 64.7582H83.7773C83.3649 64.7582 83.0087 64.6087 82.7087 64.3097C82.4087 64.0108 82.2587 63.6558 82.2587 63.2447V48.1658C82.2587 47.7548 82.4087 47.3998 82.7087 47.1008C83.0087 46.8018 83.3649 46.6524 83.7773 46.6524H85.8021C86.7021 46.6524 87.377 46.8953 87.8269 47.3811C88.3144 47.8295 88.6706 48.3714 88.8956 49.0067C89.1206 49.642 89.2518 50.3146 89.2893 51.0247Z" fill="#F4EDE8"/>
<path fill-rule="evenodd" clip-rule="evenodd" d="M115.85 82.4156C116 83.0509 116.169 83.518 116.357 83.8169C116.544 84.1159 116.732 84.3588 116.919 84.5457L117.425 85.0501C117.575 85.1996 117.688 85.4425 117.763 85.7789H114.782C114.519 85.7789 114.276 85.6854 114.051 85.4986C113.863 85.3117 113.751 85.0875 113.713 84.8259C113.751 85.0875 113.694 85.3117 113.544 85.4986C113.394 85.6854 113.207 85.7789 112.982 85.7789H110.001C109.926 85.4425 109.945 85.1996 110.057 85.0501L110.395 84.6017C110.507 84.4149 110.601 84.172 110.676 83.873C110.751 83.5367 110.732 83.0322 110.62 82.3595V82.3034L109.382 75.9692C109.307 75.5955 109.101 75.2779 108.764 75.0163C108.426 74.7173 108.051 74.5678 107.639 74.5678H103.758C103.345 74.5678 102.97 74.7173 102.633 75.0163C102.295 75.2779 102.089 75.5955 102.014 75.9692L100.833 82.3034V82.3595C100.721 83.0322 100.683 83.5367 100.721 83.873C100.796 84.172 100.889 84.4149 101.002 84.6017C101.152 84.7512 101.264 84.9007 101.339 85.0501C101.452 85.1996 101.489 85.4425 101.452 85.7789H98.4708C98.2083 85.7789 98.0021 85.6854 97.8521 85.4986C97.7021 85.3117 97.6459 85.0875 97.6834 84.8259C97.6459 85.0875 97.5334 85.3117 97.3459 85.4986C97.1584 85.6854 96.9334 85.7789 96.671 85.7789H93.69C93.7275 85.4425 93.8212 85.1996 93.9712 85.0501L94.4774 84.5457C94.6649 84.3588 94.8524 84.1159 95.0399 83.8169C95.2274 83.518 95.3961 83.0509 95.5461 82.4156L98.0771 68.7942C98.1521 68.271 98.0958 67.7852 97.9083 67.3367C97.7209 66.8883 97.4209 66.5333 97.0084 66.2717C97.6084 66.0101 98.1521 65.8793 98.6395 65.8793L101.677 49.9035C101.789 49.2683 101.808 48.8011 101.733 48.5022C101.658 48.1658 101.564 47.9229 101.452 47.7735C101.339 47.5866 101.227 47.4184 101.114 47.269C101.002 47.1195 100.983 46.8766 101.058 46.5402H104.826C105.389 46.615 105.67 46.9326 105.67 47.4932C105.67 47.2316 105.745 47.0261 105.895 46.8766C106.083 46.6897 106.289 46.5776 106.514 46.5402H110.338C110.413 46.8766 110.395 47.1195 110.282 47.269C110.207 47.4184 110.113 47.5866 110.001 47.7735C109.888 47.9229 109.795 48.1658 109.72 48.5022C109.645 48.8011 109.663 49.2683 109.776 49.9035L112.757 65.8793C113.057 65.8793 113.338 65.9167 113.601 65.9914C113.863 66.0661 114.126 66.1596 114.388 66.2717C113.563 66.7948 113.207 67.6357 113.319 68.7942L115.85 82.4156ZM107.132 71.9332C107.545 71.8959 107.864 71.7464 108.089 71.4848C108.351 71.1858 108.445 70.8308 108.37 70.4197L108.032 68.7942C107.882 68.271 107.62 67.7852 107.245 67.3367C106.907 66.8883 106.495 66.5333 106.008 66.2717C106.458 66.0101 106.945 65.8793 107.47 65.8793L105.67 56.2938L103.87 65.8793C104.358 65.8793 104.864 66.0101 105.389 66.2717C104.864 66.5333 104.414 66.8883 104.039 67.3367C103.702 67.7852 103.477 68.271 103.364 68.7942L103.083 70.4197C103.008 70.8308 103.083 71.1858 103.308 71.4848C103.533 71.7464 103.833 71.8959 104.208 71.9332H107.132Z" fill="#F4EDE8"/>
<path fill-rule="evenodd" clip-rule="evenodd" d="M140.293 88.5256C140.143 88.3387 139.861 88.2079 139.449 88.1332C138.924 88.0211 138.511 87.7408 138.212 87.2924C137.929 86.8705 137.714 86.366 137.564 85.7789H140.452C140.715 85.7789 140.921 85.6854 141.071 85.4986C141.259 85.3117 141.352 85.1062 141.352 84.882C141.352 85.1062 141.446 85.3117 141.634 85.4986C141.821 85.6854 142.027 85.7789 142.252 85.7789H147.596C148.795 85.7789 149.92 85.5546 150.97 85.1062C152.02 84.6578 152.939 84.0598 153.726 83.3124C154.514 82.5277 155.132 81.6308 155.582 80.6218C156.032 79.5754 156.276 78.4543 156.313 77.2585V73.6149C156.313 72.0454 155.938 70.6066 155.189 69.2986C154.439 67.9533 153.426 66.907 152.151 66.1596C153.426 65.3748 154.439 64.3284 155.189 63.0205C155.938 61.7125 156.313 60.2738 156.313 58.7042V55.0606C156.276 53.9022 156.032 52.7997 155.582 51.7534C155.132 50.707 154.514 49.8101 153.726 49.0627C152.939 48.278 152.02 47.6613 150.97 47.2129C149.92 46.7645 148.795 46.5402 147.596 46.5402H142.309C141.709 46.5402 141.409 46.8392 141.409 47.4371C141.409 47.1755 141.315 46.97 141.127 46.8205C140.94 46.6337 140.734 46.5402 140.509 46.5402H137.528C137.528 46.8766 137.584 47.1195 137.697 47.269C137.847 47.4184 137.997 47.5866 138.146 47.7735C138.296 47.9229 138.428 48.1472 138.54 48.4461C138.69 48.7451 138.765 49.2122 138.765 49.8475V65.8793C138.128 65.8793 137.603 66.0101 137.19 66.2717C138.128 66.7948 138.653 67.6357 138.765 68.7942V82.4716C138.765 83.1069 138.69 83.574 138.54 83.873C138.428 84.172 138.296 84.4149 138.146 84.6017L137.697 85.0501C137.6 85.1786 137.545 85.3759 137.531 85.6423C137.384 84.9764 137.292 84.2559 137.255 83.4806V73.6149C137.255 72.0454 136.88 70.6066 136.13 69.2986C135.381 67.9533 134.368 66.907 133.093 66.1596C134.368 65.3748 135.381 64.3284 136.13 63.0205C136.88 61.7125 137.255 60.2738 137.255 58.7042V55.0606C137.218 53.9022 136.974 52.7997 136.524 51.7534C136.074 50.707 135.456 49.8101 134.668 49.0627C133.881 48.278 132.962 47.6613 131.912 47.2129C130.862 46.7645 129.737 46.5402 128.537 46.5402H123.25C122.651 46.5402 122.351 46.8392 122.351 47.4371C122.351 47.1755 122.257 46.97 122.069 46.8205C121.882 46.6337 121.676 46.5402 121.451 46.5402H118.47C118.47 46.8766 118.526 47.1195 118.638 47.269C118.788 47.4184 118.938 47.5866 119.088 47.7735C119.238 47.9229 119.37 48.1472 119.482 48.4461C119.632 48.7451 119.707 49.2122 119.707 49.8475V65.8793C119.07 65.8793 118.545 66.0101 118.132 66.2717C119.07 66.7948 119.595 67.6357 119.707 68.7942V82.4716C119.707 83.1069 119.632 83.574 119.482 83.873C119.37 84.172 119.238 84.4149 119.088 84.6017L118.638 85.0501C118.526 85.1996 118.47 85.4425 118.47 85.7789H121.394C121.657 85.7789 121.863 85.6854 122.013 85.4986C122.201 85.3117 122.294 85.1062 122.294 84.882C122.294 85.1062 122.388 85.3117 122.576 85.4986C122.763 85.6854 122.969 85.7789 123.194 85.7789H126.175C126.175 85.4425 126.1 85.1996 125.95 85.0501C125.838 84.9007 125.706 84.7512 125.556 84.6017C125.407 84.4149 125.257 84.172 125.107 83.873C124.994 83.5367 124.938 83.0322 124.938 82.3595V68.9623C124.938 68.5886 125.05 68.271 125.275 68.0094C125.538 67.7104 125.838 67.5236 126.175 67.4488H128.481C129.381 67.4488 130.056 67.6917 130.506 68.1775C130.993 68.626 131.35 69.1679 131.575 69.8031C131.8 70.4384 131.931 71.1111 131.968 71.8211C132.006 72.5312 132.025 73.1291 132.025 73.6149V81.2945C132.025 82.864 132.25 84.1906 132.7 85.2744C133.187 86.3581 133.824 87.2363 134.612 87.909C135.437 88.5816 136.374 89.0674 137.424 89.3664C138.474 89.6654 139.599 89.8148 140.799 89.8148C140.799 89.5533 140.761 89.3103 140.686 89.0861C140.611 88.8993 140.48 88.7124 140.293 88.5256ZM133.952 61.6448H133.998L133.937 61.6751L133.952 61.6448ZM131.968 53.4911C132.006 54.2011 132.025 54.799 132.025 55.2848V58.7042C132.025 59.19 132.006 59.788 131.968 60.498C131.931 61.1707 131.8 61.8433 131.575 62.516C131.35 63.1513 130.993 63.6931 130.506 64.1416C130.056 64.59 129.381 64.8142 128.481 64.8142H126.456C126.044 64.8142 125.688 64.6647 125.388 64.3658C125.088 64.0668 124.938 63.7118 124.938 63.3007V50.6883C124.938 50.2773 125.088 49.9222 125.388 49.6233C125.688 49.3243 126.044 49.1561 126.456 49.1188H128.481C129.381 49.1188 130.056 49.3617 130.506 49.8475C130.993 50.2959 131.35 50.8378 131.575 51.4731C131.8 52.1084 131.931 52.781 131.968 53.4911ZM151.083 73.6149C151.083 73.1291 151.064 72.5312 151.026 71.8211C150.989 71.1111 150.858 70.4384 150.633 69.8031C150.408 69.1679 150.052 68.626 149.564 68.1775C149.114 67.6917 148.439 67.4488 147.539 67.4488H145.515C145.102 67.4862 144.746 67.6544 144.446 67.9533C144.146 68.2523 143.996 68.6073 143.996 69.0184V81.6308C143.996 82.0419 144.146 82.3969 144.446 82.6958C144.746 82.9948 145.102 83.1443 145.515 83.1443H147.539C148.439 83.1443 149.114 82.92 149.564 82.4716C150.052 82.0232 150.408 81.4813 150.633 80.846C150.858 80.1734 150.989 79.5007 151.026 78.828C151.064 78.118 151.083 77.5201 151.083 77.0343V73.6149ZM151.083 55.2848C151.083 54.799 151.064 54.2011 151.026 53.4911C150.989 52.781 150.858 52.1084 150.633 51.4731C150.408 50.8378 150.052 50.2959 149.564 49.8475C149.114 49.3617 148.439 49.1188 147.539 49.1188H145.515C145.102 49.1561 144.746 49.3243 144.446 49.6233C144.146 49.9222 143.996 50.2773 143.996 50.6883V63.3007C143.996 63.7118 144.146 64.0668 144.446 64.3658C144.746 64.6647 145.102 64.8142 145.515 64.8142H147.539C148.439 64.8142 149.114 64.59 149.564 64.1416C150.052 63.6931 150.408 63.1513 150.633 62.516C150.858 61.8433 150.989 61.1707 151.026 60.498C151.064 59.788 151.083 59.19 151.083 58.7042V55.2848Z" fill="#F4EDE8"/>
<path d="M175.653 83.873C175.54 83.5367 175.484 83.0322 175.484 82.3595V74.8481C174.172 74.8481 173.159 75.1097 172.447 75.6329C171.772 76.1561 171.266 76.7353 170.928 77.3706C170.516 78.0806 170.291 78.9028 170.253 79.837V81.6308C170.253 82.0419 170.103 82.3969 169.803 82.6958C169.503 82.9948 169.147 83.1443 168.735 83.1443H164.685C164.273 83.1443 163.916 82.9948 163.616 82.6958C163.317 82.3969 163.167 82.0419 163.167 81.6308V69.0184C163.167 68.6073 163.317 68.2523 163.616 67.9533C163.916 67.6544 164.273 67.4862 164.685 67.4488H165.079C165.491 67.4862 165.829 67.6544 166.091 67.9533C166.391 68.2523 166.541 68.6073 166.541 69.0184C166.579 69.5789 166.729 70.0647 166.991 70.4758C167.216 70.8495 167.554 71.1858 168.004 71.4848C168.454 71.7838 169.11 71.9332 169.972 71.9332V60.3298C169.11 60.3298 168.454 60.4793 168.004 60.7783C167.554 61.0772 167.216 61.4135 166.991 61.7872C166.729 62.1983 166.579 62.6841 166.541 63.2447V63.3007C166.541 63.7118 166.391 64.0668 166.091 64.3658C165.829 64.6647 165.491 64.8142 165.079 64.8142H164.685C164.273 64.8142 163.916 64.6647 163.616 64.3658C163.317 64.0668 163.167 63.7118 163.167 63.3007V50.6883C163.167 50.2773 163.317 49.9222 163.616 49.6233C163.916 49.3243 164.273 49.1561 164.685 49.1188H168.735C169.147 49.1561 169.503 49.3243 169.803 49.6233C170.103 49.9222 170.253 50.2773 170.253 50.6883V52.426C170.291 53.3977 170.516 54.2385 170.928 54.9485C171.266 55.5838 171.772 56.1631 172.447 56.6862C173.159 57.172 174.172 57.4149 175.484 57.4149V49.9596C175.484 49.287 175.54 48.8011 175.653 48.5022C175.803 48.1658 175.953 47.9229 176.103 47.7735C176.253 47.5866 176.384 47.4184 176.496 47.269C176.646 47.1195 176.721 46.8766 176.721 46.5402H161.479C160.879 46.5402 160.579 46.8392 160.579 47.4371C160.579 47.1755 160.486 46.97 160.298 46.8205C160.111 46.6337 159.904 46.5402 159.679 46.5402H156.698C156.698 46.8766 156.755 47.1195 156.867 47.269C157.017 47.4184 157.167 47.5866 157.317 47.7735C157.467 47.9229 157.598 48.1472 157.711 48.4461C157.861 48.7451 157.936 49.2122 157.936 49.8475V65.8793C157.298 65.8793 156.773 66.0101 156.361 66.2717C157.298 66.7948 157.823 67.6357 157.936 68.7942V82.4716C157.936 83.1069 157.861 83.574 157.711 83.873C157.598 84.172 157.467 84.4149 157.317 84.6017L156.867 85.0501C156.755 85.1996 156.698 85.4425 156.698 85.7789H159.623C159.886 85.7789 160.092 85.6854 160.242 85.4986C160.429 85.3117 160.523 85.1062 160.523 84.882C160.523 85.1062 160.617 85.3117 160.804 85.4986C160.992 85.6854 161.198 85.7789 161.423 85.7789H176.721C176.721 85.4425 176.646 85.1996 176.496 85.0501C176.384 84.9007 176.253 84.7512 176.103 84.6017C175.953 84.4149 175.803 84.172 175.653 83.873Z" fill="#F4EDE8"/>
<path fill-rule="evenodd" clip-rule="evenodd" d="M198.11 88.1332C198.523 88.2079 198.804 88.3387 198.954 88.5256C199.141 88.7124 199.273 88.8993 199.348 89.0861C199.423 89.3103 199.46 89.5533 199.46 89.8148C198.26 89.8148 197.135 89.6654 196.085 89.3664C195.036 89.0674 194.098 88.5816 193.273 87.909C192.486 87.2363 191.848 86.3581 191.361 85.2744C190.911 84.1906 190.686 82.864 190.686 81.2945V73.6149C190.686 73.1291 190.667 72.5312 190.63 71.8211C190.592 71.1111 190.461 70.4384 190.236 69.8031C190.011 69.1679 189.655 68.626 189.167 68.1775C188.717 67.6917 188.042 67.4488 187.143 67.4488H184.836C184.499 67.5236 184.199 67.7104 183.937 68.0094C183.712 68.271 183.599 68.5886 183.599 68.9623V82.3595C183.599 83.0322 183.655 83.5367 183.768 83.873C183.918 84.172 184.068 84.4149 184.218 84.6017C184.368 84.7512 184.499 84.9007 184.612 85.0501C184.761 85.1996 184.836 85.4425 184.836 85.7789H181.856C181.631 85.7789 181.424 85.6854 181.237 85.4986C181.049 85.3117 180.956 85.1062 180.956 84.882C180.956 85.1062 180.862 85.3117 180.674 85.4986C180.524 85.6854 180.318 85.7789 180.056 85.7789H177.131C177.131 85.4425 177.187 85.1996 177.3 85.0501L177.75 84.6017C177.9 84.4149 178.031 84.172 178.143 83.873C178.293 83.574 178.368 83.1069 178.368 82.4716V68.7942C178.256 67.6357 177.731 66.7948 176.794 66.2717C177.206 66.0101 177.731 65.8793 178.368 65.8793V49.8475C178.368 49.2122 178.293 48.7451 178.143 48.4461C178.031 48.1472 177.9 47.9229 177.75 47.7735C177.6 47.5866 177.45 47.4184 177.3 47.269C177.187 47.1195 177.131 46.8766 177.131 46.5402H180.112C180.337 46.5402 180.543 46.6337 180.731 46.8205C180.918 46.97 181.012 47.1755 181.012 47.4371C181.012 46.8392 181.312 46.5402 181.912 46.5402H187.199C188.399 46.5402 189.524 46.7645 190.573 47.2129C191.623 47.6613 192.542 48.278 193.329 49.0627C194.117 49.8101 194.736 50.707 195.185 51.7534C195.635 52.7997 195.879 53.9022 195.917 55.0606V58.7042C195.917 60.2738 195.542 61.7125 194.792 63.0205C194.042 64.3284 193.029 65.3748 191.755 66.1596C193.029 66.907 194.042 67.9533 194.792 69.2986C195.542 70.6066 195.917 72.0454 195.917 73.6149V83.4806C195.954 84.2654 196.048 84.9941 196.198 85.6668C196.348 86.3021 196.573 86.8439 196.873 87.2924C197.173 87.7408 197.585 88.0211 198.11 88.1332ZM190.686 55.2848C190.686 54.799 190.667 54.2011 190.63 53.4911C190.592 52.781 190.461 52.1084 190.236 51.4731C190.011 50.8378 189.655 50.2959 189.167 49.8475C188.717 49.3617 188.042 49.1188 187.143 49.1188H185.118C184.705 49.1561 184.349 49.3243 184.049 49.6233C183.749 49.9222 183.599 50.2773 183.599 50.6883V63.3007C183.599 63.7118 183.749 64.0668 184.049 64.3658C184.349 64.6647 184.705 64.8142 185.118 64.8142H187.143C188.042 64.8142 188.717 64.59 189.167 64.1416C189.655 63.6931 190.011 63.1513 190.236 62.516C190.461 61.8433 190.592 61.1707 190.63 60.498C190.667 59.788 190.686 59.19 190.686 58.7042V55.2848Z" fill="#F4EDE8"/>
<ellipse rx="3.01354" ry="3.00339" transform="matrix(1 0 0 -1 210.947 67.0288)" fill="#999591"/>
<ellipse rx="3.01354" ry="3.00339" transform="matrix(1 0 0 -1 19.0857 67.0288)" fill="#999591"/>
</svg>
